<svg id="Слой_1" data-name="Слой 1" xmlns="http://www.w3.org/2000/svg" viewBox="0 0 1602.44 820.64"><defs><style>.cls-1{fill:#00b6ed;}.cls-2{fill:#e30613;}.cls-3{fill:#ffe600;}.cls-4{fill:#009e3d;}</style></defs><title>bg-inventor-2</title><path class="cls-1" d="M317.56,959.71V945.09a13.86,13.86,0,0,1,13.84-13.86h0a13.85,13.85,0,0,1,13.83,13.86v14.82A10.18,10.18,0,0,0,355,970.18a10.05,10.05,0,0,0,10.34-10V921a35.09,35.09,0,0,1,10.1-24.85,34.41,34.41,0,0,1,58.71,24.41v9a7.7,7.7,0,0,0,7.69,7.71h19.3a13.85,13.85,0,0,1,13.83,13.87h0A13.85,13.85,0,0,1,461.1,965H442.27a35.91,35.91,0,0,1-25.43-10.34,35.26,35.26,0,0,1-10.4-25.1v-8.85a6.86,6.86,0,0,0-6.48-6.92,6.76,6.76,0,0,0-7,6.76v39.13a38.38,38.38,0,0,1-10.79,26.88,37.65,37.65,0,0,1-53.82,0A38.38,38.38,0,0,1,317.56,959.71Z" transform="translate(-317.56 -187.56)"/><path class="cls-2" d="M627,704.39a43.74,43.74,0,0,1-62,0l-78.59-78.77a106.29,106.29,0,0,1,0-150.15L565,396.7a43.86,43.86,0,0,1,62,62.09l-78.59,78.78a18.4,18.4,0,0,0,0,25.95L627,642.29A44,44,0,0,1,627,704.39Z" transform="translate(-317.56 -187.56)"/><path class="cls-3" d="M1006.76,796.84l24.78-3.58a7.88,7.88,0,0,0,6.67-6.67l3.57-24.85,3.58,24.85a7.87,7.87,0,0,0,6.67,6.67l24.78,3.58L1052,800.42a7.87,7.87,0,0,0-6.67,6.68L1041.78,832l-3.57-24.85a7.88,7.88,0,0,0-6.67-6.68Z" transform="translate(-317.56 -187.56)"/><rect class="cls-4" x="562.6" y="492.26" width="116.88" height="5.57" transform="translate(924.51 802.54) rotate(-180)"/><rect class="cls-4" x="562.6" y="481.13" width="116.88" height="5.57" transform="translate(924.51 780.27) rotate(-180)"/><rect class="cls-4" x="562.6" y="470" width="116.88" height="5.57" transform="translate(924.51 758.01) rotate(-180)"/><rect class="cls-4" x="562.6" y="458.87" width="116.88" height="5.57" transform="translate(924.51 735.75) rotate(-180)"/><rect class="cls-2" x="1605.49" y="503.45" width="17.33" height="17.29" transform="translate(1808.69 -1289.62) rotate(90)"/><rect class="cls-2" x="1638.47" y="503.45" width="17.33" height="17.29" transform="translate(1841.67 -1322.6) rotate(90)"/><rect class="cls-3" x="675.57" y="336.96" width="56.59" height="18.84"/><rect class="cls-2" x="732.16" y="336.96" width="56.59" height="18.84"/><ellipse class="cls-1" cx="692.2" cy="372.41" rx="16.57" ry="16.61"/><path class="cls-2" d="M1255.68,250.85l48.46-7a8.36,8.36,0,0,0,7.07-7.07l7-48.57a.76.76,0,0,1,1.51,0l7,48.57a8.36,8.36,0,0,0,7.07,7.07l48.46,7a.76.76,0,0,1,0,1.51l-48.46,7a8.36,8.36,0,0,0-7.07,7.07l-7,48.57a.76.76,0,0,1-1.51,0l-7-48.57a8.36,8.36,0,0,0-7.07-7.07l-48.46-7A.76.76,0,0,1,1255.68,250.85Z" transform="translate(-317.56 -187.56)"/><path class="cls-3" d="M1919.83,942.47l-.06-25.3h-.1a45.51,45.51,0,1,0,.23,91h.1S1919.8,942.47,1919.83,942.47Z" transform="translate(-317.56 -187.56)"/><rect class="cls-3" x="1380.99" y="124.29" width="56.59" height="18.84"/><rect class="cls-2" x="1437.58" y="124.29" width="56.59" height="18.84"/><ellipse class="cls-1" cx="1397.62" cy="159.74" rx="16.57" ry="16.61"/><path class="cls-3" d="M586,249l24.78-3.58a7.87,7.87,0,0,0,6.66-6.67L621,213.89l3.57,24.86a7.89,7.89,0,0,0,6.67,6.67L656.06,249l-24.78,3.58a7.89,7.89,0,0,0-6.67,6.67L621,284.11l-3.58-24.86a7.87,7.87,0,0,0-6.66-6.67Z" transform="translate(-317.56 -187.56)"/></svg>