<svg id="Слой_1" data-name="Слой 1" xmlns="http://www.w3.org/2000/svg" viewBox="0 0 1436.95 841.43"><defs><style>.cls-1{fill:#00b6ed;}.cls-2{fill:#e30613;}.cls-3{fill:#ffe600;}.cls-4{fill:#009e3d;}</style></defs><title>bg-inventor-3</title><path class="cls-1" d="M638.29,990.79V976.17a13.86,13.86,0,0,1,13.84-13.87h0A13.86,13.86,0,0,1,666,976.17V991a10.19,10.19,0,0,0,9.73,10.27A10.07,10.07,0,0,0,686,991.2V952.09a35.09,35.09,0,0,1,10.1-24.85,34.41,34.41,0,0,1,58.71,24.41v9a7.71,7.71,0,0,0,7.69,7.72h19.3a13.84,13.84,0,0,1,13.83,13.86h0a13.84,13.84,0,0,1-13.83,13.86H763a35.91,35.91,0,0,1-25.43-10.34,35.24,35.24,0,0,1-10.39-25.1v-8.84a6.87,6.87,0,0,0-6.49-6.92,6.75,6.75,0,0,0-7,6.75v39.14a38.38,38.38,0,0,1-10.79,26.87,37.62,37.62,0,0,1-53.82,0A38.38,38.38,0,0,1,638.29,990.79Z" transform="translate(-483.05 -187.56)"/><path class="cls-2" d="M603.15,658.24a30.62,30.62,0,0,1-43.37,0l-55-55.14a74.39,74.39,0,0,1,0-105.11l55-55.14a30.7,30.7,0,0,1,43.37,43.47l-55,55.14a12.9,12.9,0,0,0,0,18.17l55,55.14A30.8,30.8,0,0,1,603.15,658.24Z" transform="translate(-483.05 -187.56)"/><path class="cls-3" d="M1006.76,796.84l24.78-3.58a7.88,7.88,0,0,0,6.67-6.67l3.57-24.85,3.58,24.85a7.87,7.87,0,0,0,6.67,6.67l24.78,3.58L1052,800.42a7.87,7.87,0,0,0-6.67,6.68L1041.78,832l-3.57-24.85a7.88,7.88,0,0,0-6.67-6.68Z" transform="translate(-483.05 -187.56)"/><rect class="cls-4" x="562.6" y="492.26" width="116.88" height="5.57" transform="translate(759.03 802.54) rotate(-180)"/><rect class="cls-4" x="562.6" y="481.13" width="116.88" height="5.57" transform="translate(759.03 780.27) rotate(-180)"/><rect class="cls-4" x="562.6" y="470" width="116.88" height="5.57" transform="translate(759.03 758.01) rotate(-180)"/><rect class="cls-4" x="562.6" y="458.87" width="116.88" height="5.57" transform="translate(759.03 735.75) rotate(-180)"/><rect class="cls-2" x="1597.65" y="839.42" width="17.33" height="17.29" transform="translate(1971.32 -945.8) rotate(90)"/><rect class="cls-2" x="1630.63" y="839.42" width="17.33" height="17.29" transform="translate(2004.3 -978.78) rotate(90)"/><rect class="cls-3" x="510.08" y="336.96" width="56.59" height="18.84"/><rect class="cls-2" x="566.67" y="336.96" width="56.59" height="18.84"/><ellipse class="cls-1" cx="526.71" cy="372.41" rx="16.57" ry="16.61"/><path class="cls-2" d="M1255.68,250.85l48.46-7a8.36,8.36,0,0,0,7.07-7.07l7-48.57a.76.76,0,0,1,1.51,0l7,48.57a8.36,8.36,0,0,0,7.07,7.07l48.46,7a.76.76,0,0,1,0,1.51l-48.46,7a8.36,8.36,0,0,0-7.07,7.07l-7,48.57a.76.76,0,0,1-1.51,0l-7-48.57a8.36,8.36,0,0,0-7.07-7.07l-48.46-7A.76.76,0,0,1,1255.68,250.85Z" transform="translate(-483.05 -187.56)"/><path class="cls-3" d="M1919.83,942.47l-.06-25.3h-.1a45.51,45.51,0,1,0,.23,91h.1S1919.8,942.47,1919.83,942.47Z" transform="translate(-483.05 -187.56)"/><rect class="cls-3" x="1215.5" y="124.29" width="56.59" height="18.84"/><rect class="cls-2" x="1272.09" y="124.29" width="56.59" height="18.84"/><ellipse class="cls-1" cx="1232.13" cy="159.74" rx="16.57" ry="16.61"/><path class="cls-3" d="M782.15,363.91l24.78-3.58a7.89,7.89,0,0,0,6.67-6.67l3.57-24.86,3.57,24.86a7.89,7.89,0,0,0,6.67,6.67l24.78,3.58-24.78,3.58a7.89,7.89,0,0,0-6.67,6.67L817.17,399l-3.57-24.86a7.89,7.89,0,0,0-6.67-6.67Z" transform="translate(-483.05 -187.56)"/></svg>