<svg id="Слой_1" data-name="Слой 1" xmlns="http://www.w3.org/2000/svg" viewBox="0 0 1909.1 1046.58"><defs><style>.cls-1{fill:#00b6ed;}.cls-2{fill:#e30613;}.cls-3{fill:#ffe600;}.cls-4{fill:#009e3d;}.cls-5{fill:#0068b2;}</style></defs><title>bg-inventor-spike</title><path class="cls-1" d="M10.91,207.3v-6.71a6.23,6.23,0,0,1,6.1-6.36h0a6.24,6.24,0,0,1,6.11,6.36v6.8a4.6,4.6,0,0,0,4.29,4.71A4.53,4.53,0,0,0,32,207.49V189.55a16.46,16.46,0,0,1,4.46-11.4,14.75,14.75,0,0,1,21.08-.37,16,16,0,0,1,4.82,11.57v4.13a3.47,3.47,0,0,0,3.4,3.54h8.51a6.24,6.24,0,0,1,6.11,6.36h0a6.23,6.23,0,0,1-6.11,6.35H65.93A15.53,15.53,0,0,1,54.72,205a16.48,16.48,0,0,1-4.59-11.51v-4.06a3.09,3.09,0,0,0-2.86-3.17,3,3,0,0,0-3.09,3.1v18a18,18,0,0,1-4.76,12.32,16.16,16.16,0,0,1-23.75,0A18,18,0,0,1,10.91,207.3Z" transform="translate(-10.91 -33.34)"/><path class="cls-2" d="M52.34,799a10.63,10.63,0,0,1-15.05.2l-18.85-18.9a24.6,24.6,0,0,1-5.54-8.46,25.52,25.52,0,0,1-1.76-9.68,26.09,26.09,0,0,1,2-9.73,26.59,26.59,0,0,1,5.77-8.62l19.35-19.39a10.52,10.52,0,1,1,14.86,14.89l-19.35,19.4a4.46,4.46,0,0,0-.09,6.3l18.85,18.9A10.69,10.69,0,0,1,52.34,799Z" transform="translate(-10.91 -33.34)"/><path class="cls-3" d="M916.87,763.72l24.78-3.58a7.88,7.88,0,0,0,6.67-6.67l3.57-24.85,3.58,24.85a7.88,7.88,0,0,0,6.67,6.67l24.78,3.58-24.78,3.58a7.88,7.88,0,0,0-6.67,6.68l-3.58,24.85L948.32,774a7.88,7.88,0,0,0-6.67-6.68Z" transform="translate(-10.91 -33.34)"/><path class="cls-3" d="M134.18,70.77,160.59,67a8.39,8.39,0,0,0,7.11-7.12l3.82-26.49,3.81,26.49A8.39,8.39,0,0,0,182.44,67l26.41,3.82-26.41,3.81a8.4,8.4,0,0,0-7.11,7.12l-3.81,26.49L167.7,81.7a8.4,8.4,0,0,0-7.11-7.12Z" transform="translate(-10.91 -33.34)"/><path class="cls-2" d="M108.25,309l18.54-2.68a8.36,8.36,0,0,0,7.07-7.07l2.67-18.58a.76.76,0,0,1,1.5,0l2.68,18.58a8.34,8.34,0,0,0,7.06,7.07L166.31,309a.76.76,0,0,1,0,1.5l-18.54,2.68a8.34,8.34,0,0,0-7.06,7.07L138,338.82a.76.76,0,0,1-1.5,0l-2.67-18.58a8.36,8.36,0,0,0-7.07-7.07l-18.54-2.68A.76.76,0,0,1,108.25,309Z" transform="translate(-10.91 -33.34)"/><rect class="cls-4" x="674.09" y="576.49" width="116.88" height="5.57" transform="translate(1454.14 1125.21) rotate(-180)"/><rect class="cls-4" x="674.09" y="565.36" width="116.88" height="5.57" transform="translate(1454.14 1102.95) rotate(-180)"/><rect class="cls-4" x="674.09" y="554.23" width="116.88" height="5.57" transform="translate(1454.14 1080.68) rotate(-180)"/><rect class="cls-4" x="674.09" y="543.1" width="116.88" height="5.57" transform="translate(1454.14 1058.42) rotate(-180)"/><polygon class="cls-5" points="57.9 953.55 57.9 918.93 92.43 953.55 57.9 953.55"/><polygon class="cls-5" points="1366.27 841.3 1366.27 816.52 1391 841.3 1366.27 841.3"/><path class="cls-2" d="M1739.31,729c-21.08,0-38.17-17.81-38.17-39.79s17.09-39.8,38.17-39.8,38.18,17.82,38.18,39.8S1760.39,729,1739.31,729Zm17-39.79c0-9.76-7.59-17.67-17-17.67s-17,7.91-17,17.67,7.59,17.67,17,17.67S1756.26,699,1756.26,689.24Z" transform="translate(-10.91 -33.34)"/><rect class="cls-2" x="1204.75" y="671.93" width="17.33" height="17.29" transform="translate(1883.07 -566.17) rotate(90)"/><rect class="cls-2" x="1237.73" y="671.93" width="17.33" height="17.29" transform="translate(1916.05 -599.15) rotate(90)"/><rect class="cls-4" x="1137.75" y="954.15" width="86.1" height="8.79" transform="translate(2128.44 -255.59) rotate(90)"/><rect class="cls-4" x="1120.17" y="954.15" width="86.1" height="8.79" transform="translate(2110.85 -238) rotate(90)"/><rect class="cls-4" x="1102.58" y="954.15" width="86.1" height="8.79" transform="translate(2093.27 -220.42) rotate(90)"/><rect class="cls-3" x="767.07" y="353.81" width="32.33" height="12.83"/><rect class="cls-2" x="799.4" y="353.81" width="32.33" height="12.83"/><ellipse class="cls-1" cx="776.57" cy="377.95" rx="9.47" ry="11.31"/><path class="cls-1" d="M223.57,717.36v-9a8.62,8.62,0,0,1,8.73-8.51h0a8.61,8.61,0,0,1,8.72,8.51v9.09a6.34,6.34,0,0,0,12.67.13v-24a21.23,21.23,0,0,1,6.37-15.25,22.11,22.11,0,0,1,30.14-.49,20.81,20.81,0,0,1,6.9,15.47v5.53a4.79,4.79,0,0,0,4.85,4.73h12.17a8.62,8.62,0,0,1,8.73,8.5h0a8.62,8.62,0,0,1-8.73,8.51H302.24a23,23,0,0,1-16-6.34,21.32,21.32,0,0,1-6.55-15.4v-5.43a4.26,4.26,0,0,0-4.09-4.24,4.2,4.2,0,0,0-4.42,4.14v24a23.17,23.17,0,0,1-6.81,16.48,24.21,24.21,0,0,1-33.95,0A23.17,23.17,0,0,1,223.57,717.36Z" transform="translate(-10.91 -33.34)"/><rect class="cls-3" x="60.22" y="467.61" width="32.22" height="11.81"/><rect class="cls-2" x="92.43" y="467.61" width="32.22" height="11.81"/><ellipse class="cls-1" cx="69.68" cy="489.84" rx="9.44" ry="10.41"/><rect class="cls-2" x="865.34" y="150.85" width="17.33" height="17.29" transform="translate(1022.58 -747.85) rotate(90)"/><rect class="cls-2" x="405.67" y="90.08" width="17.33" height="17.29" transform="translate(502.14 -348.95) rotate(90)"/><path class="cls-2" d="M1603.44,992.11l18.53-2.68a8.34,8.34,0,0,0,7.07-7.07l2.67-18.58a.76.76,0,0,1,1.51,0l2.67,18.58a8.34,8.34,0,0,0,7.07,7.07l18.53,2.68a.76.76,0,0,1,0,1.51L1643,996.3a8.34,8.34,0,0,0-7.07,7.07l-2.67,18.58a.76.76,0,0,1-1.51,0l-2.67-18.58a8.34,8.34,0,0,0-7.07-7.07l-18.53-2.68A.76.76,0,0,1,1603.44,992.11Z" transform="translate(-10.91 -33.34)"/><path class="cls-3" d="M1901.84,1079.92H1920v-.05c0-12.6-14.63-22.81-32.68-22.81s-32.69,10.21-32.69,22.81v.05S1901.84,1079.9,1901.84,1079.92Z" transform="translate(-10.91 -33.34)"/><rect class="cls-3" x="1592.13" y="258.27" width="42.44" height="13.12"/><rect class="cls-2" x="1634.57" y="258.27" width="42.44" height="13.12"/><ellipse class="cls-1" cx="1604.6" cy="282.96" rx="12.43" ry="11.57"/><rect class="cls-2" x="364.67" y="409.06" width="17.33" height="17.29" transform="translate(780.13 11.03) rotate(90)"/><polygon class="cls-5" points="394.8 887.3 394.8 852.68 429.33 887.3 394.8 887.3"/><polygon class="cls-5" points="1755.77 120.25 1755.77 85.64 1790.31 120.25 1755.77 120.25"/><path class="cls-1" d="M1389.55,546.22v-5.13a5.07,5.07,0,0,1,5.24-4.88h0a5.07,5.07,0,0,1,5.25,4.88v5.21a3.81,3.81,0,0,0,7.61.07V532.62a11.89,11.89,0,0,1,3.84-8.73,13.47,13.47,0,0,1,9.19-3.54,13.62,13.62,0,0,1,8.93,3.26,11.65,11.65,0,0,1,4.14,8.86v3.17a2.83,2.83,0,0,0,2.92,2.71H1444a5.07,5.07,0,0,1,5.25,4.87h0a5.07,5.07,0,0,1-5.25,4.87h-7.14a14.2,14.2,0,0,1-9.64-3.63,11.94,11.94,0,0,1-4-8.82v-3.11a2.56,2.56,0,0,0-5.11-.06v13.75a13,13,0,0,1-4.09,9.45,15.09,15.09,0,0,1-20.42,0A13,13,0,0,1,1389.55,546.22Z" transform="translate(-10.91 -33.34)"/><path class="cls-3" d="M575.45,262.68h12.66v-.05a22.76,22.76,0,1,0-45.52,0v.05S575.45,262.66,575.45,262.68Z" transform="translate(-10.91 -33.34)"/><polygon class="cls-5" points="1095.79 447.45 1095.79 412.84 1130.32 447.45 1095.79 447.45"/><path class="cls-3" d="M542.59,1001.6,569,997.78a8.39,8.39,0,0,0,7.11-7.11l3.81-26.5,3.81,26.5a8.4,8.4,0,0,0,7.11,7.11l26.42,3.82-26.42,3.82a8.39,8.39,0,0,0-7.11,7.11L579.93,1039l-3.81-26.49a8.38,8.38,0,0,0-7.11-7.11Z" transform="translate(-10.91 -33.34)"/><path class="cls-2" d="M751.12,871.42a10.63,10.63,0,0,1-15,.2l-18.85-18.9a24.74,24.74,0,0,1-5.54-8.46,25.52,25.52,0,0,1-1.76-9.68,26.1,26.1,0,0,1,2-9.73,26.72,26.72,0,0,1,5.76-8.62l19.35-19.39a10.52,10.52,0,1,1,14.86,14.89l-19.35,19.4a4.46,4.46,0,0,0-.08,6.3l18.84,18.9A10.68,10.68,0,0,1,751.12,871.42Z" transform="translate(-10.91 -33.34)"/><path class="cls-2" d="M1223.37,196.78a10.63,10.63,0,0,1-15.06.2l-18.85-18.89a24.88,24.88,0,0,1-5.54-8.47,25.45,25.45,0,0,1-1.76-9.68,26.05,26.05,0,0,1,2-9.72,26.62,26.62,0,0,1,5.76-8.62l19.35-19.4a10.53,10.53,0,1,1,14.86,14.9l-19.35,19.39a4.48,4.48,0,0,0-.08,6.31l18.84,18.89A10.69,10.69,0,0,1,1223.37,196.78Z" transform="translate(-10.91 -33.34)"/><path class="cls-1" d="M663.78,107.58v-7.31a6.79,6.79,0,0,1,6.63-6.94h0a6.78,6.78,0,0,1,6.62,6.94v7.41a5,5,0,0,0,4.66,5.13,4.92,4.92,0,0,0,5-5V88.23a18,18,0,0,1,4.84-12.43,16,16,0,0,1,22.89-.4A17.52,17.52,0,0,1,719.61,88v4.51a3.78,3.78,0,0,0,3.69,3.85h9.25a6.78,6.78,0,0,1,6.62,6.93h0a6.78,6.78,0,0,1-6.62,6.93h-9a16.85,16.85,0,0,1-12.18-5.17,18,18,0,0,1-5-12.54V88.09a3.37,3.37,0,0,0-3.1-3.46A3.31,3.31,0,0,0,699.9,88v19.57A19.58,19.58,0,0,1,694.73,121,17.49,17.49,0,0,1,669,121,19.58,19.58,0,0,1,663.78,107.58Z" transform="translate(-10.91 -33.34)"/></svg>