<svg id="Layer_1" data-name="Layer 1" xmlns="http://www.w3.org/2000/svg" viewBox="0 0 594.91 133.89"><title>inventor_logo_monochrome</title><path d="M1222.63,477.82H825.48V343.94h397.15Zm-395.51-1.63H1221V345.57H827.12Z" transform="translate(-825.48 -343.94)"/><path d="M1420.39,411.7H1221V343.94h199.39Zm-197.76-1.64h196.12V345.57H1222.63Z" transform="translate(-825.48 -343.94)"/><path d="M1420.39,477.82H1221V410.06h199.39Zm-197.76-1.63h196.12V411.7H1222.63Z" transform="translate(-825.48 -343.94)"/><path d="M1297,382.1c0,5.06-4.59,6.79-8.26,6.79-6.36,0-9-3.6-9.46-7.35h4.47c.59,2.14,1.89,3.23,5,3.23,2.52,0,3.82-.94,3.82-2.49s-1.52-1.83-5.34-2.67-7.35-2.08-7.35-6.36c0-4.56,4.06-6.83,8.19-6.83,5.84,0,8.26,3.14,8.75,6.74h-4.5c-.46-1.52-1.55-2.61-4.22-2.61s-3.75,1.12-3.75,2.52,1.08,1.58,3.94,2.2C1294.05,376.51,1297,377.78,1297,382.1Z" transform="translate(-825.48 -343.94)"/><path d="M1317.08,371h-6.27v17.5h-4.44V371h-6.24V366.8h16.95Z" transform="translate(-825.48 -343.94)"/><path d="M1326,371v4.37h9.31v4.22H1326v4.69h10.15v4.22h-14.58V366.8h14.58V371Z" transform="translate(-825.48 -343.94)"/><path d="M1362.11,366.8v21.72h-4.44V372.94l-6.05,9.16h-.41l-6-9.16v15.58h-4.43V366.8h5.08l5.59,8.34,5.56-8.34Z" transform="translate(-825.48 -343.94)"/><path d="M1287.22,432.68V454H1260.8V432.68h4.36v17.19h6.67V432.68h4.36v17.19h6.67V432.68Z" transform="translate(-825.48 -343.94)"/><path d="M1304.83,454l-8-10v10h-4.36V432.68h4.36v9.45l7.59-9.45h5.39L1301.42,443l8.87,11Z" transform="translate(-825.48 -343.94)"/><path d="M1333.36,443.35a11.11,11.11,0,1,1-11.13-11A10.88,10.88,0,0,1,1333.36,443.35Zm-17.83,0a6.71,6.71,0,1,0,6.7-6.89A6.6,6.6,0,0,0,1315.53,443.35Z" transform="translate(-825.48 -343.94)"/><path d="M1355.32,432.68V454H1351V436.83h-5.76l-1.71,10.64c-.79,5-2.9,6.91-5.94,6.91a12.62,12.62,0,0,1-2.14-.21v-3.93a8.77,8.77,0,0,0,1.22.09c1.5,0,2.17-.7,2.56-3.29l2.32-14.36Z" transform="translate(-825.48 -343.94)"/><path d="M1374.16,449h-8.63l-1.83,5h-4.6l8-21.34h5.52l8,21.34H1376Zm-1.53-4.15-2.8-7.74-2.81,7.74Z" transform="translate(-825.48 -343.94)"/><rect x="52.57" y="48.66" width="6.87" height="36.98"/><polygon points="97.74 73.7 84.8 48.66 77.4 48.66 77.4 85.64 84 85.64 84 60.6 96.95 85.64 104.34 85.64 104.34 48.66 97.74 48.66 97.74 73.7"/><polygon points="132.86 78.17 125.69 48.66 118.08 48.66 128.54 85.64 137.16 85.64 147.67 48.66 140.11 48.66 132.86 78.17"/><polygon points="161.41 48.66 161.41 55.53 161.41 63.45 161.41 70.32 161.41 78.77 161.41 85.64 168.27 85.64 183.07 85.64 183.07 78.77 168.27 78.77 168.27 70.32 179.37 70.32 179.37 63.45 168.27 63.45 168.27 55.53 183.07 55.53 183.07 48.66 168.27 48.66 161.41 48.66"/><polygon points="218.2 73.7 205.26 48.66 197.86 48.66 197.86 85.64 204.47 85.64 204.47 60.6 217.41 85.64 224.81 85.64 224.81 48.66 218.2 48.66 218.2 73.7"/><polygon points="247.79 48.66 238.02 48.66 238.02 55.53 247.79 55.53 247.79 85.64 254.66 85.64 254.66 55.53 264.43 55.53 264.43 48.66 254.66 48.66 247.79 48.66"/><path d="M1114.75,391.8c-7.82,0-13.21,5.39-13.21,13.21v12.15c0,7.82,5.39,13.21,13.21,13.21S1128,425,1128,417.16V405C1128,397.19,1122.57,391.8,1114.75,391.8Zm6.34,25.36a6.34,6.34,0,0,1-12.68,0V405a6.34,6.34,0,0,1,12.68,0Z" transform="translate(-825.48 -343.94)"/><path d="M1162.35,429.58h7.72l-9.63-15.75a10.5,10.5,0,0,0,8.15-10.35c0-6.24-4.81-10.89-11.89-10.89h-11.84v37h6.61V412.41h.85ZM1157,399.09a4.61,4.61,0,0,1,4.76,4.76,5,5,0,0,1-4.76,4.75h-5.49v-9.51Z" transform="translate(-825.48 -343.94)"/></svg>