<svg id="Layer_1" data-name="Layer 1" xmlns="http://www.w3.org/2000/svg" viewBox="0 0 593.32 132.26"><defs><style>.cls-1{fill:#0070b9;}.cls-2{fill:#ed1c24;}.cls-3{fill:#ffe700;}.cls-4{fill:#fff;}</style></defs><title>inventor_logo</title><rect class="cls-1" width="395.55" height="132.26"/><rect class="cls-2" x="395.55" width="197.77" height="66.1"/><rect class="cls-3" x="395.55" y="66.16" width="197.77" height="66.1"/><path class="cls-3" d="M1297,382.1c0,5-4.59,6.79-8.26,6.79-6.36,0-9-3.6-9.46-7.35h4.47c.59,2.14,1.89,3.22,5,3.22,2.52,0,3.82-.93,3.82-2.48s-1.52-1.83-5.34-2.67-7.35-2.08-7.35-6.36c0-4.56,4.06-6.83,8.19-6.83,5.83,0,8.26,3.14,8.75,6.74h-4.5c-.46-1.52-1.55-2.61-4.22-2.61s-3.76,1.12-3.76,2.51,1.09,1.59,4,2.21C1294.07,376.51,1297,377.78,1297,382.1Z" transform="translate(-826.28 -344.75)"/><path class="cls-3" d="M1317.1,371h-6.27v17.51h-4.44V371h-6.24v-4.22h16.95Z" transform="translate(-826.28 -344.75)"/><path class="cls-3" d="M1326,371v4.38h9.31v4.22H1326v4.69h10.14v4.22h-14.58V366.79h14.58V371Z" transform="translate(-826.28 -344.75)"/><path class="cls-3" d="M1362.13,366.79v21.73h-4.44V372.94l-6,9.16h-.4l-6-9.16v15.58h-4.44V366.79h5.09l5.58,8.35,5.56-8.35Z" transform="translate(-826.28 -344.75)"/><path class="cls-2" d="M1287.24,432.74v21.34h-26.42V432.74h4.35v17.19h6.68V432.74h4.36v17.19h6.67V432.74Z" transform="translate(-826.28 -344.75)"/><path class="cls-2" d="M1304.85,454.08l-8-10v10h-4.36V432.74h4.36v9.45l7.59-9.45h5.39l-8.38,10.34,8.87,11Z" transform="translate(-826.28 -344.75)"/><path class="cls-2" d="M1333.38,443.41a11.11,11.11,0,1,1-11.13-11A10.88,10.88,0,0,1,1333.38,443.41Zm-17.83,0a6.71,6.71,0,1,0,6.7-6.89A6.6,6.6,0,0,0,1315.55,443.41Z" transform="translate(-826.28 -344.75)"/><path class="cls-2" d="M1355.35,432.74v21.34H1351V436.89h-5.76l-1.71,10.64c-.79,5-2.89,6.91-5.94,6.91a12.5,12.5,0,0,1-2.13-.21V450.3a8.53,8.53,0,0,0,1.21.09c1.5,0,2.17-.7,2.57-3.29l2.31-14.36Z" transform="translate(-826.28 -344.75)"/><path class="cls-2" d="M1374.18,449.05h-8.63l-1.82,5h-4.61l8-21.34h5.52l8,21.34H1376Zm-1.52-4.15-2.81-7.74-2.8,7.74Z" transform="translate(-826.28 -344.75)"/><rect class="cls-4" x="51.75" y="47.84" width="6.87" height="36.99"/><polygon class="cls-4" points="96.93 72.89 83.98 47.84 76.59 47.84 76.59 84.83 83.19 84.83 83.19 59.78 96.14 84.83 103.53 84.83 103.53 47.84 96.93 47.84 96.93 72.89"/><polygon class="cls-4" points="132.05 77.36 124.88 47.84 117.27 47.84 127.74 84.83 136.35 84.83 146.86 47.84 139.31 47.84 132.05 77.36"/><polygon class="cls-4" points="160.6 47.84 160.6 54.71 160.6 62.64 160.6 69.51 160.6 77.96 160.6 84.83 167.47 84.83 182.27 84.83 182.27 77.96 167.47 77.96 167.47 69.51 178.57 69.51 178.57 62.64 167.47 62.64 167.47 54.71 182.27 54.71 182.27 47.84 167.47 47.84 160.6 47.84"/><polygon class="cls-4" points="217.4 72.89 204.46 47.84 197.06 47.84 197.06 84.83 203.67 84.83 203.67 59.78 216.61 84.83 224.01 84.83 224.01 47.84 217.4 47.84 217.4 72.89"/><polygon class="cls-4" points="247 47.84 237.22 47.84 237.22 54.71 247 54.71 247 84.83 253.86 84.83 253.86 54.71 263.64 54.71 263.64 47.84 253.86 47.84 247 47.84"/><path class="cls-4" d="M1114.75,391.8c-7.82,0-13.21,5.39-13.21,13.21v12.15c0,7.82,5.39,13.21,13.21,13.21S1128,425,1128,417.16V405C1128,397.19,1122.57,391.8,1114.75,391.8Zm6.34,25.36a6.34,6.34,0,1,1-12.68,0V405a6.34,6.34,0,0,1,12.68,0Z" transform="translate(-826.28 -344.75)"/><path class="cls-4" d="M1162.36,429.58h7.72l-9.63-15.75a10.5,10.5,0,0,0,8.15-10.35c0-6.24-4.81-10.89-11.89-10.89h-11.84v37h6.61V412.41h.84ZM1157,399.09a4.61,4.61,0,0,1,4.76,4.76,5,5,0,0,1-4.76,4.75h-5.49v-9.51Z" transform="translate(-826.28 -344.75)"/></svg>