<?xml version="1.0" encoding="utf-8"?>
<!-- Generator: Adobe Illustrator 24.0.1, SVG Export Plug-In . SVG Version: 6.00 Build 0)  -->
<svg version="1.1" id="Layer_1" xmlns="http://www.w3.org/2000/svg" xmlns:xlink="http://www.w3.org/1999/xlink" x="0px" y="0px"
	 viewBox="0 0 593.3 132.3" style="enable-background:new 0 0 593.3 132.3;" xml:space="preserve">
<style type="text/css">
	.st0{fill:#0070B9;}
	.st1{fill:#ED1C24;}
	.st2{fill:#FFE700;}
	.st3{fill:#FFFFFF;}
	.st4{font-family:'MyriadPro-Regular';}
	.st5{font-size:50px;}
	.st6{fill:#FF3333;}
	.st7{font-size:42px;}
</style>
<title>inventor_logo</title>
<rect class="st0" width="395.5" height="132.3"/>
<rect x="395.5" class="st1" width="197.8" height="66.1"/>
<rect x="395.5" y="66.2" class="st2" width="197.8" height="66.1"/>
<path class="st2" d="M470.7,37.4c0,5-4.6,6.8-8.3,6.8c-6.4,0-9-3.6-9.5-7.4h4.5c0.6,2.1,1.9,3.2,5,3.2c2.5,0,3.8-0.9,3.8-2.5
	s-1.5-1.8-5.3-2.7s-7.3-2.1-7.3-6.4c0-4.6,4.1-6.8,8.2-6.8c5.8,0,8.3,3.1,8.8,6.7H466c-0.5-1.5-1.6-2.6-4.2-2.6s-3.8,1.1-3.8,2.5
	s1.1,1.6,4,2.2C467.8,31.8,470.7,33,470.7,37.4z"/>
<path class="st2" d="M490.8,26.3h-6.3v17.5h-4.4V26.3h-6.2V22h16.9V26.3z"/>
<path class="st2" d="M499.7,26.3v4.4h9.3v4.2h-9.3v4.7h10.1v4.2h-14.6V22h14.6v4.2H499.7z"/>
<path class="st2" d="M535.8,22v21.7h-4.4V28.2l-6,9.2H525l-6-9.2v15.6h-4.4V22h5.1l5.6,8.4l5.6-8.4H535.8z"/>
<text transform="matrix(1 0 0 1 27.0638 83.1012)" class="st3 st4 st5">LOGO Company</text>
<text transform="matrix(1 0 0 1 450.8723 108.5319)" class="st6 st4 st7">Logo</text>
</svg>
